<?xml version="1.0" encoding="utf-8"?>
<!-- Generator: Adobe Illustrator 16.2.1, SVG Export Plug-In . SVG Version: 6.00 Build 0)  -->
<!DOCTYPE svg PUBLIC "-//W3C//DTD SVG 1.1//EN" "http://www.w3.org/Graphics/SVG/1.1/DTD/svg11.dtd">
<svg version="1.1" id="Layer_1" xmlns="http://www.w3.org/2000/svg" xmlns:xlink="http://www.w3.org/1999/xlink" x="0px" y="0px"
	 width="328.151px" height="328.153px" viewBox="-1033.893 -30.426 328.151 328.153"
	 enable-background="new -1033.893 -30.426 328.151 328.153" xml:space="preserve">
<g>
	<path opacity="0.7" fill="#70535C" d="M-909.371,53.692c31.081,31.081,36.072,76.476,36.072,76.476s-45.395-4.991-76.476-36.072
		c-31.069-31.07-36.062-76.465-36.062-76.465S-940.44,22.622-909.371,53.692z"/>
	<path opacity="0.7" fill="#A2C98F" d="M-954.324,105.081c43.955,0,79.583,28.57,79.583,28.57s-35.628,28.568-79.583,28.568
		c-43.939,0-79.568-28.568-79.568-28.568S-998.264,105.081-954.324,105.081z"/>
	<path opacity="0.7" fill="#D6C054" d="M-949.774,173.204c31.081-31.081,76.476-36.072,76.476-36.072s-4.992,45.395-36.073,76.476
		c-31.07,31.07-76.465,36.062-76.465,36.062S-980.844,204.274-949.774,173.204z"/>
	<path opacity="0.7" fill="#54ACD3" d="M-898.386,218.156c0-43.955,28.569-79.582,28.569-79.582s28.569,35.627,28.569,79.582
		c0,43.941-28.569,79.57-28.569,79.57S-898.386,262.098-898.386,218.156z"/>
	<path opacity="0.7" fill="#487081" d="M-789.87,173.193c31.081,31.081,36.072,76.476,36.072,76.476s-45.395-4.991-76.476-36.072
		c-31.069-31.07-36.062-76.465-36.062-76.465S-820.939,142.123-789.87,173.193z"/>
	<path opacity="0.7" fill="#9F6163" d="M-785.324,105.081c43.955,0,79.583,28.57,79.583,28.57s-35.628,28.568-79.583,28.568
		c-43.939,0-79.568-28.568-79.568-28.568S-829.264,105.081-785.324,105.081z"/>
	<path opacity="0.7" fill="#A3B57B" d="M-830.273,53.703c31.081-31.081,76.476-36.072,76.476-36.072s-4.992,45.395-36.073,76.476
		c-31.07,31.07-76.465,36.062-76.465,36.062S-861.343,84.773-830.273,53.703z"/>
	<path opacity="0.7" fill="#CC6666" d="M-898.386,49.157c0-43.955,28.569-79.583,28.569-79.583s28.569,35.628,28.569,79.583
		c0,43.939-28.569,79.568-28.569,79.568S-898.386,93.096-898.386,49.157z"/>
</g>
</svg>
