<?xml version="1.0" encoding="utf-8"?>
<!-- Generator: Adobe Illustrator 16.2.1, SVG Export Plug-In . SVG Version: 6.00 Build 0)  -->
<!DOCTYPE svg PUBLIC "-//W3C//DTD SVG 1.1//EN" "http://www.w3.org/Graphics/SVG/1.1/DTD/svg11.dtd">
<svg version="1.1" id="Layer_1" xmlns="http://www.w3.org/2000/svg" xmlns:xlink="http://www.w3.org/1999/xlink" x="0px" y="0px"
	 width="312.2px" height="312.208px" viewBox="-527.917 -90.454 312.2 312.208"
	 enable-background="new -527.917 -90.454 312.2 312.208" xml:space="preserve">
<path opacity="0.7" fill="#CC6666" d="M-343.252-10.886c0,43.954-28.569,79.582-28.569,79.582s-28.568-35.628-28.568-79.582
	c0-43.941,28.568-79.568,28.568-79.568S-343.252-54.827-343.252-10.886z"/>
<path opacity="0.7" fill="#70535C" d="M-405.739-8.668c31.078,31.078,36.082,76.475,36.082,76.475s-45.382-5.004-76.46-36.082
	c-31.077-31.078-36.081-76.46-36.081-76.46S-436.804-39.732-405.739-8.668z"/>
<path opacity="0.7" fill="#A2C98F" d="M-448.348,37.08c43.954,0,79.583,28.569,79.583,28.569s-35.629,28.568-79.583,28.568
	c-43.94,0-79.568-28.568-79.568-28.568S-492.302,37.08-448.348,37.08z"/>
<path opacity="0.7" fill="#D6C054" d="M-446.124,99.565c31.077-31.078,76.459-36.068,76.459-36.068s-5.004,45.382-36.081,76.46
	c-31.064,31.078-76.46,36.068-76.46,36.068S-477.202,130.643-446.124,99.565z"/>
<path opacity="0.7" fill="#54ACD3" d="M-400.382,142.186c0-43.955,28.569-79.583,28.569-79.583s28.569,35.628,28.569,79.583
	c0,43.939-28.569,79.568-28.569,79.568S-400.382,186.125-400.382,142.186z"/>
<path opacity="0.7" fill="#487081" d="M-337.895,139.965c-31.079-31.076-36.083-76.471-36.083-76.471s45.397,5.004,76.474,36.082
	c31.077,31.077,36.069,76.459,36.069,76.459S-306.818,171.045-337.895,139.965z"/>
<path opacity="0.7" fill="#9F6163" d="M-295.287,94.215c-43.953,0-79.58-28.568-79.58-28.568s35.613-28.556,79.58-28.556
	c43.941,0,79.57,28.556,79.57,28.556S-251.332,94.215-295.287,94.215z"/>
<path opacity="0.7" fill="#A3B57B" d="M-297.504,31.735c-31.076,31.077-76.474,36.068-76.474,36.068s5.004-45.383,36.083-76.461
	c31.076-31.077,76.46-36.067,76.46-36.067S-266.427,0.657-297.504,31.735z"/>
</svg>
